<svg width="20" height="21" viewBox="0 0 20 21" fill="none" xmlns="http://www.w3.org/2000/svg">
<g clip-path="url(#clip0_106_67)">
<path d="M10.0152 20.0304C15.5465 20.0304 20.0304 15.5465 20.0304 10.0152C20.0304 4.48397 15.5465 0 10.0152 0C4.48397 0 0 4.48397 0 10.0152C0 15.5465 4.48397 20.0304 10.0152 20.0304Z" fill="#E0E0E0"/>
<path d="M10.0152 19.726C15.4624 19.726 19.8783 15.3102 19.8783 9.86301C19.8783 4.41582 15.4624 0 10.0152 0C4.56805 0 0.152222 4.41582 0.152222 9.86301C0.152222 15.3102 4.56805 19.726 10.0152 19.726Z" fill="white"/>
<mask id="mask0_106_67" style="mask-type:luminance" maskUnits="userSpaceOnUse" x="3" y="3" width="14" height="14">
<path d="M16.4079 8.70623H10.1674V11.2937H13.7595C13.4247 12.9376 12.0244 13.8813 10.1674 13.8813C7.97566 13.8813 6.21006 12.1157 6.21006 9.92388C6.21006 7.7321 7.97566 5.9665 10.1674 5.9665C11.1111 5.9665 11.9635 6.30136 12.6332 6.84931L14.5814 4.90105C13.3942 3.86605 11.8722 3.22678 10.1674 3.22678C6.45359 3.22678 3.47034 6.21003 3.47034 9.92388C3.47034 13.6377 6.45359 16.621 10.1674 16.621C13.516 16.621 16.5601 14.1857 16.5601 9.92388C16.5601 9.52815 16.4993 9.10197 16.4079 8.70623Z" fill="white"/>
</mask>
<g mask="url(#mask0_106_67)">
<path d="M2.86145 13.8813V5.96649L8.03649 9.92387L2.86145 13.8813Z" fill="#FBBC05"/>
</g>
<mask id="mask1_106_67" style="mask-type:luminance" maskUnits="userSpaceOnUse" x="3" y="3" width="14" height="14">
<path d="M16.4079 8.70623H10.1674V11.2937H13.7595C13.4247 12.9376 12.0244 13.8813 10.1674 13.8813C7.97566 13.8813 6.21006 12.1157 6.21006 9.92388C6.21006 7.7321 7.97566 5.9665 10.1674 5.9665C11.1111 5.9665 11.9635 6.30136 12.6332 6.84931L14.5814 4.90105C13.3942 3.86605 11.8722 3.22678 10.1674 3.22678C6.45359 3.22678 3.47034 6.21003 3.47034 9.92388C3.47034 13.6377 6.45359 16.621 10.1674 16.621C13.516 16.621 16.5601 14.1857 16.5601 9.92388C16.5601 9.52815 16.4993 9.10197 16.4079 8.70623Z" fill="white"/>
</mask>
<g mask="url(#mask1_106_67)">
<path d="M2.86145 5.9665L8.03649 9.92389L10.1674 8.06697L17.4733 6.87975V2.61795H2.86145V5.9665Z" fill="#EA4335"/>
</g>
<mask id="mask2_106_67" style="mask-type:luminance" maskUnits="userSpaceOnUse" x="3" y="3" width="14" height="14">
<path d="M16.4079 8.70623H10.1674V11.2937H13.7595C13.4247 12.9376 12.0244 13.8813 10.1674 13.8813C7.97566 13.8813 6.21006 12.1157 6.21006 9.92388C6.21006 7.7321 7.97566 5.9665 10.1674 5.9665C11.1111 5.9665 11.9635 6.30136 12.6332 6.84931L14.5814 4.90105C13.3942 3.86605 11.8722 3.22678 10.1674 3.22678C6.45359 3.22678 3.47034 6.21003 3.47034 9.92388C3.47034 13.6377 6.45359 16.621 10.1674 16.621C13.516 16.621 16.5601 14.1857 16.5601 9.92388C16.5601 9.52815 16.4993 9.10197 16.4079 8.70623Z" fill="white"/>
</mask>
<g mask="url(#mask2_106_67)">
<path d="M2.86145 13.8813L11.9939 6.87975L14.3987 7.18416L17.4733 2.61795V17.2298H2.86145V13.8813Z" fill="#34A853"/>
</g>
<mask id="mask3_106_67" style="mask-type:luminance" maskUnits="userSpaceOnUse" x="3" y="3" width="14" height="14">
<path d="M16.4079 8.70623H10.1674V11.2937H13.7595C13.4247 12.9376 12.0244 13.8813 10.1674 13.8813C7.97566 13.8813 6.21006 12.1157 6.21006 9.92388C6.21006 7.7321 7.97566 5.9665 10.1674 5.9665C11.1111 5.9665 11.9635 6.30136 12.6332 6.84931L14.5814 4.90105C13.3942 3.86605 11.8722 3.22678 10.1674 3.22678C6.45359 3.22678 3.47034 6.21003 3.47034 9.92388C3.47034 13.6377 6.45359 16.621 10.1674 16.621C13.516 16.621 16.5601 14.1857 16.5601 9.92388C16.5601 9.52815 16.4993 9.10197 16.4079 8.70623Z" fill="white"/>
</mask>
<g mask="url(#mask3_106_67)">
<path d="M17.4733 17.2298L8.0365 9.92387L6.81885 9.01063L17.4733 5.96649V17.2298Z" fill="#4285F4"/>
</g>
</g>
<defs>
<clipPath id="clip0_106_67">
<rect width="20" height="20.0304" fill="white"/>
</clipPath>
</defs>
</svg>
