<svg width="24" height="20" viewBox="0 0 24 20" fill="none" xmlns="http://www.w3.org/2000/svg">
<path d="M8.65519 11.5789H6.42159C2.88134 11.5789 0 14.2947 0 17.6316V19.2105C0 19.6474 0.374128 20 0.837599 20H14.2392C14.7027 20 15.0768 19.6474 15.0768 19.2105V17.6316C15.0768 14.2947 12.1954 11.5789 8.65519 11.5789ZM13.4016 18.4211H1.6752V17.6316C1.6752 15.1632 3.8027 13.1579 6.42159 13.1579H8.65519C11.2741 13.1579 13.4016 15.1632 13.4016 17.6316V18.4211ZM7.53839 11.0526C10.7715 11.0526 13.4016 8.57368 13.4016 5.52632C13.4016 2.47895 10.7715 0 7.53839 0C4.30526 0 1.6752 2.47895 1.6752 5.52632C1.6752 8.57368 4.30526 11.0526 7.53839 11.0526ZM7.53839 1.57895C9.85016 1.57895 11.7264 3.34737 11.7264 5.52632C11.7264 7.70526 9.85016 9.47368 7.53839 9.47368C5.22662 9.47368 3.3504 7.70526 3.3504 5.52632C3.3504 3.34737 5.22662 1.57895 7.53839 1.57895ZM23.9497 9.98421C23.9497 9.97895 23.9497 9.96842 23.9442 9.96316V9.9579C23.9051 9.86842 23.8492 9.79474 23.7822 9.72632C23.7754 9.71829 23.7698 9.70944 23.7655 9.7L21.5319 7.59474C21.2024 7.28421 20.6719 7.28421 20.3481 7.59474C20.0242 7.90526 20.0186 8.40526 20.3481 8.71053L21.1466 9.47368H15.9088C15.4453 9.47368 15.0712 9.82632 15.0712 10.2632C15.0712 10.7 15.4453 11.0526 15.9088 11.0526H21.1466L20.3425 11.8105C20.2641 11.8835 20.2019 11.9703 20.1595 12.0661C20.117 12.1619 20.0952 12.2646 20.0952 12.3684C20.0952 12.4722 20.117 12.575 20.1595 12.6707C20.2019 12.7665 20.2641 12.8534 20.3425 12.9263C20.5044 13.0789 20.7222 13.1579 20.9344 13.1579C21.1466 13.1579 21.3644 13.0789 21.5263 12.9263L23.7599 10.8211C23.8325 10.7526 23.8827 10.6737 23.9274 10.5895C23.9386 10.5632 23.9497 10.5368 23.9553 10.5105C23.9777 10.4474 23.9888 10.3842 23.9944 10.3158C23.9944 10.2895 24 10.2632 24 10.2368C24 10.1474 23.9832 10.0684 23.9497 9.98421Z" fill="white"/>
</svg>
