<?xml version="1.0" encoding="UTF-8"?>
<svg version="1.1" viewBox="0 0 2048 470" width="1694" height="389" xmlns="http://www.w3.org/2000/svg">
<path transform="translate(1554,34)" d="m0 0h67l2 8 30 160 13 70 1 2 13-18 14-20 13-18 11-16 13-18 13-19 7-10-1-7-12-29-28-70-5-12v-3h76l4 10 16 44 1 2 11-17 16-25 8-12 2-2h77l-7 11-12 17-16 23-28 40-16 23-1 3 22 54 15 37 14 34v1h-79l-5-12-16-41-3-8-8 11-29 44-4 6h-146l-2-7-3-21v-6h-75l-3 9-11 25h-68l9-20 22-44 11-23 25-51 17-35 23-47 10-21zm19 82-7 15-18 41-5 12v2h40l1-2-9-64z" fill="#027AC4"/>
<path transform="translate(1231,34)" d="m0 0h69l2 5 23 117 1 3 23-47 12-25 17-35 8-17 1-1h69l-1 13-33 230h-58l7-51 11-76-1 1-13 28-16 36-18 39h-43l-2-7-16-97-1 1-18 126h-58l7-51 27-187z" fill="#027AC4"/>
<path transform="translate(628,34)" d="m0 0h65l-2 18-9 62-1 3h2l2-4 12-14 9-11 13-15 9-11 12-14 11-13 1-1h75l-2 4-10 11-9 11-10 11-9 11-11 12-9 11-11 12-9 11-3 3 3 11 21 56 18 49 11 29v1h-79l-17-48-11-32v-2l-6 5-9 11-8 9-8 54-1 3h-66l7-50 27-187z" fill="#FEFEFE"/>
<path transform="translate(849,34)" d="m0 0h167l-2 18-6 42-1 1h-102l-1 12-3 18h92v8l-7 49-1 4h-93l-2 18-2 12h104l-1 13-7 48h-171l7-50 27-187z" fill="#FEFEFE"/>
<path transform="translate(523,31)" d="m0 0 19 1 15 4 17 8 12 9 13 13 6 9-4 6-12 14-9 11-11 13-9 11h-2l-6-11-10-11-9-6-10-3h-9l-13 4-11 8-8 10-7 14-4 15-1 7v18l3 12 5 10 5 5 5 4 10 3h9l13-4 13-7 11-9 7-7 3 3 16 26 12 19-1 4-12 12-17 13-16 9-16 7-15 4-6 1h-22l-18-4-16-8-11-8-9-9-10-15-6-14-5-19-2-20 1-23 4-22 5-16 7-17 9-16 9-12 11-12 10-9 15-10 17-8 17-5z" fill="#FEFEFE"/>
<path transform="translate(1034,34)" d="m0 0h178l-3 24-5 35-2 5h-56l-1 12-23 159-1 8h-66l1-13 24-166h-55l-1-2 8-56z" fill="#FEFEFE"/>
<path transform="translate(136,34)" d="m0 0h178l-1 12-7 49-1 3h-56l-25 173-1 6h-66l2-18 23-159 1-2h-56l-1-2 8-54 1-7z" fill="#FEFEFE"/>
<path transform="translate(333,34)" d="m0 0h65l-2 18-24 166-8 56-1 3h-66l7-50 27-187z" fill="#FEFEFE"/>
<path transform="translate(999,371)" d="m0 0h12l1 11 4-6 7-4 11-1 7 3 5 5 3 6 3-4 6-7 9-3h7l8 3 6 7 3 10v48h-12l-1-43-4-8-4-2h-8l-5 3-4 6-2 8-1 36h-11l-1-40-3-9-3-3-2-1h-8l-6 4-4 9-1 40h-12z" fill="#FEFEFE"/>
<path transform="translate(1543,371)" d="m0 0h11l1 1-1 11h2l2-5 6-5 7-2 10 1 6 4 4 5 1 5h2l2-6 8-7 7-2 11 1 7 5 4 7 2 11v44h-12l-1-42-3-7-3-3-2-1h-9l-5 2-2 4-3 9-1 38h-12l-1-44-3-6-4-3h-9l-6 5-3 7-1 10v31h-12z" fill="#FEFEFE"/>
<path transform="translate(1402,371)" d="m0 0h11l1 12 4-6 5-4 7-2 10 1 6 4 4 5 1 5h2l2-6 5-5 5-3 11-1 8 3 5 5 3 5 2 16v39h-12l-1-41-3-8-5-4h-9l-5 3-4 7-1 4-1 39h-12l-1-44-3-6-4-3h-9l-6 5-3 6-1 6-1 36h-11z" fill="#FEFEFE"/>
<path transform="translate(445,371)" d="m0 0h12l3 8 11 42 1 1 13-50 1-1h12l6 21 8 31 13-49 1-3h12l-2 10-17 57-1 1h-13l-12-44v-5h-2l-2 10-10 37-3 3h-10l-3-7-17-57z" fill="#FEFEFE"/>
<path transform="translate(348,371)" d="m0 0h12l3 9 11 41 2-4 12-45 1-1h12l14 52 13-50 1-2h12l-4 16-15 51-3 2h-10l-3-8-11-40-3 8-11 39h-13l-9-29-11-37z" fill="#FEFEFE"/>
<path transform="translate(544,371)" d="m0 0h12l13 48v5h2l1-9 11-42 1-2h12l3 9 11 42 3-9 10-38 2-4h11l-1 7-18 61h-13l-5-16-9-32-13 47-1 1h-13l-15-51-4-13z" fill="#FEFEFE"/>
<path transform="translate(822,346)" d="m0 0h12l1 54 13-16 10-13h14l-6 9-11 14-2 5 15 29 5 9v2l-13 1-10-18-6-12-2-1-2 4-5 7-1 19-11 1-1-1z" fill="#FEFEFE"/>
<path transform="translate(1132,371)" d="m0 0h7l9 3 6 5 4 10v50h-12l-1-6-5 4-4 2-8 1-8-2-6-4-4-7-1-4v-8l3-8 7-6 5-2h22l-2-10-4-4-2-1h-9l-12 6-4-8 1-4 12-6zm-7 39-4 4-1 6 3 5 4 3h8l6-3 4-4 1-3v-8z" fill="#FEFEFE"/>
<path transform="translate(905,371)" d="m0 0h8l9 3 6 5 5 10 1 4 1 17-1 1h-41l4 9 5 5 5 2 10-1 9-6 5 6-1 5-8 6-6 2h-14l-10-5-7-8-3-7-1-5v-17l4-12 9-10zm-1 12-6 4-4 6-1 8h30l1-5-3-7-5-5-3-1z" fill="#FEFEFE"/>
<path transform="translate(1351,371)" d="m0 0 12 1 8 4 8 9 3 7 1 5v17l-4 11-6 8-8 5-4 1h-14l-10-5-7-8-4-11-1-12 3-14 5-8 8-7zm-2 13-7 5-4 8-1 5v7l3 10 4 5 5 3h11l7-5 4-9 1-8-2-10-5-8-6-3z" fill="#FEFEFE"/>
<path transform="translate(1650,371)" d="m0 0h13l5 8 7 13 1 1 12-22h13l-2 5-14 27 1 5 14 26 2 3-1 3h-12l-12-22-2-2-12 22-1 1h-13l2-5 13-24 3-6-15-28z" fill="#FEFEFE"/>
<path transform="translate(1173,371)" d="m0 0h14l11 21v2h2l2-6 9-16 1-1h12l-1 4-14 27-1 3 17 32 1 2-13 1-5-8-8-15v-2h-2l-2 6-10 17-3 2-11-1 7-14 11-19-1-5-10-18z" fill="#FEFEFE"/>
<path transform="translate(1289,371)" d="m0 0h7l10 3 8 7-1 4-4 6-12-6h-9l-6 4-4 7-1 4v11l4 10 5 4 3 1h8l8-4h2l1-3 5 5 2 4-5 6-8 4-3 1h-14l-10-5-7-9-3-8-1-6v-11l3-12 6-9 8-6z" fill="#FEFEFE"/>
<path transform="translate(778,371)" d="m0 0 12 1 8 4 5 5-1 4-4 6-12-6h-9l-6 4-4 6-1 3v15l4 8 5 4 2 1h9l8-4 4-3 6 7-2 4-8 7-6 2h-14l-10-5-6-7-4-9-1-5v-15l4-13 9-10 7-3z" fill="#FEFEFE"/>
<path transform="translate(954,356)" d="m0 0h12v18h16v11h-16l1 40h9l4-1 3 9-1 3-7 3h-11l-6-4-3-5-1-4v-41h-8v-11h8z" fill="#FEFEFE"/>
<path transform="translate(679,356)" d="m0 0h11v18h16l1 1v10l-16 1v34l2 5h7l5-1 2 7-1 5-6 3h-11l-6-4-4-7-1-42-7-1v-11h7z" fill="#FEFEFE"/>
<path transform="translate(724,371)" d="m0 0h11l1 1v67h-12z" fill="#FEFEFE"/>
<path transform="translate(729,343)" d="m0 0 5 2 3 5-1 7-3 4h-6l-4-5v-8l4-4z" fill="#FEFEFE"/>
<path transform="translate(648,424)" d="m0 0h5l4 5v7l-5 5-5-1-3-5v-6z" fill="#FEFEFE"/>
<path transform="translate(1242,424)" d="m0 0 6 1 3 6-1 6-4 4-5-1-3-3-1-5 3-7z" fill="#FEFEFE"/>
<path transform="translate(1515,424)" d="m0 0 6 1 3 6-1 6-4 4-5-1-3-3-1-5 2-5z" fill="#FEFEFE"/>
</svg>
